<svg xmlns="http://www.w3.org/2000/svg" viewBox="0 0 800 200" width="800" height="200">
<style>
  /* ── Orbs ── */
  @keyframes orb-a { 0%,100%{opacity:.08;r:120} 50%{opacity:.14;r:136} }
  @keyframes orb-b { 0%,100%{opacity:.06;r:100} 50%{opacity:.11;r:114} }
  .orb-a { animation: orb-a 8s ease-in-out infinite; }
  .orb-b { animation: orb-b 10s ease-in-out infinite 2s; }

  /* ── Scan sweep ── */
  @keyframes scan { from{transform:translateX(-800px)} to{transform:translateX(800px)} }
  .scan { animation: scan 4.5s linear infinite; }

  /* ── Corner brackets draw ── */
  @keyframes brk { from{stroke-dashoffset:70} to{stroke-dashoffset:0} }
  .brk-tl { stroke-dasharray:70; stroke-dashoffset:70; animation: brk .7s ease .05s forwards; }
  .brk-br { stroke-dasharray:70; stroke-dashoffset:70; animation: brk .7s ease .15s forwards; }

  /* ── Gear spin ── */
  @keyframes spin-cw  { to{transform:rotate(360deg)}  }
  @keyframes spin-ccw { to{transform:rotate(-360deg)} }
  .gear-big   { transform-origin:72px 100px; animation:spin-cw  9s linear infinite; }
  .gear-small { transform-origin:110px 118px; animation:spin-ccw 5s linear infinite; }

  /* ── WIP text fade-up ── */
  @keyframes fade-up { from{opacity:0;transform:translateY(10px)} to{opacity:1;transform:translateY(0)} }
  .t1 { animation: fade-up .6s ease .3s both; }
  .t2 { animation: fade-up .6s ease .55s both; }
  .t3 { animation: fade-up .6s ease .8s both; }

  /* ── Progress bar fill ── */
  @keyframes progress { from{width:0} to{width:198px} }
  .bar-fill { animation: progress 2s cubic-bezier(.4,0,.2,1) 1s both; }

  /* ── Bar shimmer ── */
  @keyframes shimmer { 0%{transform:translateX(-100%)} 100%{transform:translateX(400%)} }
  .shimmer { animation: shimmer 2s ease-in-out 3s infinite; }

  /* ── Dot blink ── */
  @keyframes blink { 0%,100%{opacity:0} 50%{opacity:1} }
  .dot1 { animation: blink 1.4s ease-in-out infinite 0.0s; }
  .dot2 { animation: blink 1.4s ease-in-out infinite 0.3s; }
  .dot3 { animation: blink 1.4s ease-in-out infinite 0.6s; }

  /* ── Status pulse ── */
  @keyframes pulse { 0%,100%{r:4;opacity:.5} 50%{r:6;opacity:1} }
  .live-dot { animation: pulse 2s ease-in-out infinite 1.8s; }

  /* ── Tag stagger ── */
  @keyframes tag-in { from{opacity:0;transform:translateY(6px)} to{opacity:1;transform:translateY(0)} }
  .tag1 { animation: tag-in .4s ease 1.2s both; }
  .tag2 { animation: tag-in .4s ease 1.35s both; }
  .tag3 { animation: tag-in .4s ease 1.50s both; }
  .tag4 { animation: tag-in .4s ease 1.65s both; }

  /* ── Divider grow ── */
  @keyframes grow { from{stroke-dashoffset:500} to{stroke-dashoffset:0} }
  .divider { stroke-dasharray:500; stroke-dashoffset:500; animation:grow .8s ease .7s forwards; }

  /* ── Wrench swing ── */
  @keyframes swing { 0%,100%{transform:rotate(-18deg)} 50%{transform:rotate(18deg)} }
  .wrench { transform-origin:166px 96px; animation:swing 2s ease-in-out infinite; }

  /* ── Floating particles ── */
  @keyframes p1 { 0%{cx:640;cy:180;opacity:0} 15%{opacity:.7} 85%{opacity:.4} 100%{cx:760;cy:20;opacity:0} }
  @keyframes p2 { 0%{cx:700;cy:20;opacity:0} 15%{opacity:.6} 85%{opacity:.3} 100%{cx:580;cy:180;opacity:0} }
  @keyframes p3 { 0%{cx:590;cy:120;opacity:0} 15%{opacity:.5} 85%{opacity:.4} 100%{cx:730;cy:100;opacity:0} }
  .p1 { animation: p1 6s ease-in-out infinite; }
  .p2 { animation: p2 8s ease-in-out infinite 2s; }
  .p3 { animation: p3 5s ease-in-out infinite 4s; }
</style>

<defs>
  <linearGradient id="w-bg" x1="0" y1="0" x2="800" y2="200" gradientUnits="userSpaceOnUse">
    <stop offset="0%"  stop-color="#03050f"/>
    <stop offset="100%" stop-color="#0b0f22"/>
  </linearGradient>
  <linearGradient id="w-gv" x1="0%" y1="0%" x2="100%" y2="100%">
    <stop offset="0%"  stop-color="#6c63ff"/>
    <stop offset="100%" stop-color="#00d2ff"/>
  </linearGradient>
  <linearGradient id="w-bar" x1="0%" y1="0%" x2="100%" y2="0%">
    <stop offset="0%"  stop-color="#6c63ff"/>
    <stop offset="50%" stop-color="#00d2ff"/>
    <stop offset="100%" stop-color="#ff6ef7"/>
  </linearGradient>
  <linearGradient id="w-title" x1="0%" y1="0%" x2="100%" y2="0%">
    <stop offset="0%"  stop-color="#a78bff"/>
    <stop offset="50%" stop-color="#00d2ff"/>
    <stop offset="100%" stop-color="#ff6ef7"/>
  </linearGradient>
  <linearGradient id="w-scan" x1="0%" y1="0%" x2="100%" y2="0%">
    <stop offset="0%"   stop-color="#6c63ff" stop-opacity="0"/>
    <stop offset="50%"  stop-color="#6c63ff" stop-opacity=".05"/>
    <stop offset="100%" stop-color="#6c63ff" stop-opacity="0"/>
  </linearGradient>
  <linearGradient id="w-shimmer" x1="0%" y1="0%" x2="100%" y2="0%">
    <stop offset="0%"   stop-color="#fff" stop-opacity="0"/>
    <stop offset="50%"  stop-color="#fff" stop-opacity=".35"/>
    <stop offset="100%" stop-color="#fff" stop-opacity="0"/>
  </linearGradient>
  <clipPath id="w-bar-clip">
    <rect x="222" y="134" width="198" height="10" rx="5"/>
  </clipPath>
  <clipPath id="w-clip">
    <rect width="800" height="200" rx="16"/>
  </clipPath>
</defs>

<!-- ── BACKGROUND ── -->
<rect width="800" height="200" rx="16" fill="url(#w-bg)"/>

<!-- Ambient orbs -->
<circle class="orb-a" cx="90"  cy="100" r="120" fill="#6c63ff"/>
<circle class="orb-b" cx="710" cy="100" r="100" fill="#00d2ff"/>

<!-- Dot grid -->
<g fill="#fff" opacity=".045">
  <circle cx="200" cy="36" r=".9"/><circle cx="240" cy="36" r=".9"/><circle cx="280" cy="36" r=".9"/>
  <circle cx="320" cy="36" r=".9"/><circle cx="360" cy="36" r=".9"/><circle cx="400" cy="36" r=".9"/>
  <circle cx="440" cy="36" r=".9"/><circle cx="480" cy="36" r=".9"/><circle cx="520" cy="36" r=".9"/>
  <circle cx="560" cy="36" r=".9"/><circle cx="600" cy="36" r=".9"/><circle cx="640" cy="36" r=".9"/>
  <circle cx="680" cy="36" r=".9"/><circle cx="720" cy="36" r=".9"/><circle cx="760" cy="36" r=".9"/>

  <circle cx="200" cy="72" r=".9"/><circle cx="240" cy="72" r=".9"/><circle cx="280" cy="72" r=".9"/>
  <circle cx="320" cy="72" r=".9"/><circle cx="360" cy="72" r=".9"/><circle cx="400" cy="72" r=".9"/>
  <circle cx="440" cy="72" r=".9"/><circle cx="480" cy="72" r=".9"/><circle cx="520" cy="72" r=".9"/>
  <circle cx="560" cy="72" r=".9"/><circle cx="600" cy="72" r=".9"/><circle cx="640" cy="72" r=".9"/>
  <circle cx="680" cy="72" r=".9"/><circle cx="720" cy="72" r=".9"/><circle cx="760" cy="72" r=".9"/>

  <circle cx="200" cy="108" r=".9"/><circle cx="240" cy="108" r=".9"/><circle cx="280" cy="108" r=".9"/>
  <circle cx="320" cy="108" r=".9"/><circle cx="360" cy="108" r=".9"/><circle cx="400" cy="108" r=".9"/>
  <circle cx="440" cy="108" r=".9"/><circle cx="480" cy="108" r=".9"/><circle cx="520" cy="108" r=".9"/>
  <circle cx="560" cy="108" r=".9"/><circle cx="600" cy="108" r=".9"/><circle cx="640" cy="108" r=".9"/>
  <circle cx="680" cy="108" r=".9"/><circle cx="720" cy="108" r=".9"/><circle cx="760" cy="108" r=".9"/>

  <circle cx="200" cy="144" r=".9"/><circle cx="240" cy="144" r=".9"/><circle cx="280" cy="144" r=".9"/>
  <circle cx="320" cy="144" r=".9"/><circle cx="360" cy="144" r=".9"/><circle cx="400" cy="144" r=".9"/>
  <circle cx="440" cy="144" r=".9"/><circle cx="480" cy="144" r=".9"/><circle cx="520" cy="144" r=".9"/>
  <circle cx="560" cy="144" r=".9"/><circle cx="600" cy="144" r=".9"/><circle cx="640" cy="144" r=".9"/>
  <circle cx="680" cy="144" r=".9"/><circle cx="720" cy="144" r=".9"/><circle cx="760" cy="144" r=".9"/>

  <circle cx="200" cy="180" r=".9"/><circle cx="240" cy="180" r=".9"/><circle cx="280" cy="180" r=".9"/>
  <circle cx="320" cy="180" r=".9"/><circle cx="360" cy="180" r=".9"/><circle cx="400" cy="180" r=".9"/>
  <circle cx="440" cy="180" r=".9"/><circle cx="480" cy="180" r=".9"/><circle cx="520" cy="180" r=".9"/>
  <circle cx="560" cy="180" r=".9"/><circle cx="600" cy="180" r=".9"/><circle cx="640" cy="180" r=".9"/>
  <circle cx="680" cy="180" r=".9"/><circle cx="720" cy="180" r=".9"/><circle cx="760" cy="180" r=".9"/>
</g>

<!-- Scan sweep -->
<rect class="scan" y="0" width="260" height="200" fill="url(#w-scan)" clip-path="url(#w-clip)"/>

<!-- Floating particles (right zone) -->
<circle class="p1" r="2" fill="#6c63ff" opacity="0"/>
<circle class="p2" r="1.6" fill="#00d2ff" opacity="0"/>
<circle class="p3" r="1.4" fill="#ff6ef7" opacity="0"/>

<!-- ── ANIMATED GEARS (left accent) ── -->
<!-- Big gear -->
<g class="gear-big">
  <circle cx="72" cy="100" r="28" fill="none" stroke="#6c63ff" stroke-width="5" stroke-opacity=".35"/>
  <circle cx="72" cy="100" r="13" fill="#6c63ff" opacity=".12"/>
  <circle cx="72" cy="100" r="5"  fill="#6c63ff" opacity=".5"/>
  <!-- Teeth -->
  <rect x="69" y="68"  width="6" height="10" rx="2" fill="#6c63ff" opacity=".4"/>
  <rect x="69" y="122" width="6" height="10" rx="2" fill="#6c63ff" opacity=".4"/>
  <rect x="36" y="97"  width="10" height="6" rx="2" fill="#6c63ff" opacity=".4"/>
  <rect x="90" y="97"  width="10" height="6" rx="2" fill="#6c63ff" opacity=".4"/>
  <rect x="47" y="75"  width="10" height="6" rx="2" transform="rotate(45 52 78)"  fill="#6c63ff" opacity=".3"/>
  <rect x="97" y="75"  width="10" height="6" rx="2" transform="rotate(-45 102 78)" fill="#6c63ff" opacity=".3"/>
  <rect x="47" y="117" width="10" height="6" rx="2" transform="rotate(-45 52 120)"  fill="#6c63ff" opacity=".3"/>
  <rect x="97" y="117" width="10" height="6" rx="2" transform="rotate(45 102 120)"  fill="#6c63ff" opacity=".3"/>
</g>
<!-- Small gear -->
<g class="gear-small">
  <circle cx="110" cy="118" r="16" fill="none" stroke="#00d2ff" stroke-width="3.5" stroke-opacity=".3"/>
  <circle cx="110" cy="118" r="7"  fill="#00d2ff" opacity=".1"/>
  <circle cx="110" cy="118" r="3"  fill="#00d2ff" opacity=".4"/>
  <rect x="107" y="100" width="6" height="8" rx="2" fill="#00d2ff" opacity=".35"/>
  <rect x="107" y="128" width="6" height="8" rx="2" fill="#00d2ff" opacity=".35"/>
  <rect x="92" y="115" width="8" height="6" rx="2" fill="#00d2ff" opacity=".35"/>
  <rect x="120" y="115" width="8" height="6" rx="2" fill="#00d2ff" opacity=".35"/>
</g>

<!-- Wrench accent -->
<g class="wrench">
  <rect x="158" y="82" width="16" height="48" rx="4" fill="none" stroke="#ff6ef7" stroke-width="2.2" stroke-opacity=".35"/>
  <rect x="154" y="82" width="24" height="10" rx="5" fill="none" stroke="#ff6ef7" stroke-width="2" stroke-opacity=".35"/>
  <rect x="154" y="120" width="24" height="10" rx="5" fill="none" stroke="#ff6ef7" stroke-width="2" stroke-opacity=".35"/>
</g>

<!-- ── MAIN CONTENT ── -->
<!-- WIP label -->
<g class="t1">
  <rect x="222" y="48" width="130" height="19" rx="9.5"
    fill="rgba(255,110,247,.1)" stroke="rgba(255,110,247,.35)" stroke-width=".8"/>
  <circle cx="236" cy="57.5" r="3.5" fill="#ff6ef7" opacity=".8">
    <animate attributeName="opacity" values=".3;1;.3" dur="1.5s" repeatCount="indefinite"/>
  </circle>
  <text x="246" y="62" font-family="'Segoe UI',system-ui,sans-serif"
    font-size="9.5" font-weight="600" fill="#ff6ef7" letter-spacing=".8">WORK IN PROGRESS</text>
</g>

<!-- Main heading -->
<g class="t2">
  <text x="222" y="102" font-family="'Segoe UI','SF Pro Display',system-ui,sans-serif"
    font-size="34" font-weight="800" letter-spacing="-1.2" fill="url(#w-title)" opacity="0">
    Coming Soon
  </text>
</g>

<!-- Sub text + animated dots -->
<g class="t3">
  <text x="222" y="125" font-family="'Segoe UI',system-ui,sans-serif"
    font-size="12.5" fill="rgba(180,195,255,.45)" opacity="0">
    This repo is being built
  </text>
  <text class="dot1" x="372" y="125" font-family="'Segoe UI',system-ui,sans-serif"
    font-size="14" fill="#6c63ff" opacity="0">.</text>
  <text class="dot2" x="381" y="125" font-family="'Segoe UI',system-ui,sans-serif"
    font-size="14" fill="#00d2ff" opacity="0">.</text>
  <text class="dot3" x="390" y="125" font-family="'Segoe UI',system-ui,sans-serif"
    font-size="14" fill="#ff6ef7" opacity="0">.</text>
</g>

<!-- ── PROGRESS BAR ── -->
<!-- Track -->
<rect x="222" y="134" width="198" height="10" rx="5"
  fill="rgba(255,255,255,.06)" stroke="rgba(255,255,255,.08)" stroke-width=".6"/>
<!-- Fill -->
<g clip-path="url(#w-bar-clip)">
  <rect class="bar-fill" x="222" y="134" width="0" height="10" rx="5" fill="url(#w-bar)"/>
  <!-- Shimmer on bar -->
  <rect class="shimmer" x="222" y="134" width="60" height="10" rx="5" fill="url(#w-shimmer)"/>
</g>
<!-- Percent label -->
<text x="428" y="143" font-family="'Courier New',monospace"
  font-size="9" fill="rgba(108,99,255,.7)" opacity="0">
  ~65%
  <animate attributeName="opacity" values="0;1" dur=".4s" fill="freeze" begin="2.8s"/>
</text>

<!-- ── STATUS TAGS ── -->
<g class="tag1">
  <rect x="222" y="158" width="72" height="20" rx="10"
    fill="rgba(108,99,255,.12)" stroke="rgba(108,99,255,.35)" stroke-width=".7"/>
  <text x="258" y="172" text-anchor="middle" font-family="'Segoe UI',system-ui,sans-serif"
    font-size="9.5" font-weight="600" fill="#a78bff">🔨 Building</text>
</g>
<g class="tag2">
  <rect x="302" y="158" width="68" height="20" rx="10"
    fill="rgba(0,210,255,.1)" stroke="rgba(0,210,255,.3)" stroke-width=".7"/>
  <text x="336" y="172" text-anchor="middle" font-family="'Segoe UI',system-ui,sans-serif"
    font-size="9.5" font-weight="600" fill="#00d2ff">🧪 Testing</text>
</g>
<g class="tag3">
  <rect x="378" y="158" width="68" height="20" rx="10"
    fill="rgba(255,110,247,.1)" stroke="rgba(255,110,247,.3)" stroke-width=".7"/>
  <text x="412" y="172" text-anchor="middle" font-family="'Segoe UI',system-ui,sans-serif"
    font-size="9.5" font-weight="600" fill="#ff6ef7">🎨 Styling</text>
</g>
<g class="tag4">
  <rect x="454" y="158" width="78" height="20" rx="10"
    fill="rgba(255,255,255,.05)" stroke="rgba(255,255,255,.14)" stroke-width=".7"/>
  <text x="493" y="172" text-anchor="middle" font-family="'Segoe UI',system-ui,sans-serif"
    font-size="9.5" font-weight="600" fill="rgba(200,210,255,.55)">🚀 Deploying</text>
</g>

<!-- Divider -->
<line class="divider" x1="222" y1="186" x2="550" y2="186"
  stroke="rgba(108,99,255,.25)" stroke-width=".8"/>

<!-- Status row -->
<circle class="live-dot" cx="222" cy="192" r="4" fill="#ff6ef7" opacity=".5"/>
<text x="234" y="196" font-family="'Courier New',monospace"
  font-size="9.5" fill="rgba(100,120,180,.45)" letter-spacing=".5" opacity="0">
  vishal-git-dot · stay tuned · dropping soon
  <animate attributeName="opacity" values="0;1" dur=".5s" fill="freeze" begin="1.9s"/>
</text>

<!-- ── RIGHT SIDE: spinning rings ── -->
<g>
  <!-- Outer ring -->
  <circle cx="722" cy="100" r="58" fill="none" stroke="#6c63ff"
    stroke-width=".8" stroke-opacity=".18" stroke-dasharray="10 18">
    <animateTransform attributeName="transform" type="rotate"
      from="0 722 100" to="360 722 100" dur="24s" repeatCount="indefinite"/>
  </circle>
  <!-- Mid ring -->
  <circle cx="722" cy="100" r="42" fill="none" stroke="#00d2ff"
    stroke-width=".7" stroke-opacity=".14" stroke-dasharray="6 12">
    <animateTransform attributeName="transform" type="rotate"
      from="360 722 100" to="0 722 100" dur="16s" repeatCount="indefinite"/>
  </circle>
  <!-- Inner ring -->
  <circle cx="722" cy="100" r="26" fill="none" stroke="#ff6ef7"
    stroke-width=".6" stroke-opacity=".12" stroke-dasharray="4 8">
    <animateTransform attributeName="transform" type="rotate"
      from="0 722 100" to="360 722 100" dur="10s" repeatCount="indefinite"/>
  </circle>
  <!-- Core -->
  <circle cx="722" cy="100" r="5" fill="#6c63ff" opacity=".7">
    <animate attributeName="r" values="4;7;4" dur="3s" repeatCount="indefinite"/>
    <animate attributeName="opacity" values=".4;.9;.4" dur="3s" repeatCount="indefinite"/>
  </circle>
  <!-- Orbiting dot -->
  <circle r="3.5" fill="#00d2ff" opacity=".8">
    <animateMotion dur="5s" repeatCount="indefinite"
      path="M 722,58 A 42,42 0 1,1 721.9,58 Z"/>
    <animate attributeName="opacity" values=".4;1;.4" dur="5s" repeatCount="indefinite"/>
  </circle>
</g>

<!-- ── BORDER & CORNER ACCENTS ── -->
<rect x="1" y="1" width="798" height="198" rx="15"
  fill="none" stroke="rgba(255,255,255,.07)" stroke-width="1"/>

<polyline class="brk-tl" points="22,52 22,18 56,18"
  fill="none" stroke="#6c63ff" stroke-width="2" stroke-linecap="round" stroke-opacity=".5"/>
<polyline class="brk-br" points="778,148 778,182 744,182"
  fill="none" stroke="#00d2ff" stroke-width="2" stroke-linecap="round" stroke-opacity=".4"/>
</svg>
